<?xml version="1.0" encoding="UTF-8"?>
<svg width="687px" height="114px" viewBox="0 0 687 114" version="1.1" xmlns="http://www.w3.org/2000/svg" xmlns:xlink="http://www.w3.org/1999/xlink">
    <!-- Generator: Sketch 57.1 (83088) - https://sketch.com -->
    <title>Nicequest Logo / Horizontal / *Main Dark BG by GFK@1,5x</title>
    <desc>Created with Sketch.</desc>
    <g id="Page-1" stroke="none" stroke-width="1" fill="none" fill-rule="evenodd">
        <g id="Nicequest-Logo-/-Horizontal-/-*Main-Dark-BG-by-GFK">
            <g id="Nicequest-Logo-/-Symbol-/-*Main" stroke-width="1">
                <g id="logo">
                    <path d="M5.39537631,20.8174129 C-5.90441092,39.7742603 1.43537631,62.2921586 19.1318657,71.2720739 C19.1060146,71.3194129 9.22803588,87.5170739 3.00846142,97.5741925 C0.113142268,102.25882 -2.1627088,105.467243 6.66590822,109.339379 C33.4303763,121.076548 73.3262274,106.333837 86.238355,74.6041586 C95.7716529,51.1771586 86.4930359,17.7606671 60.0359082,4.60332811 C38.107504,-6.30202782 15.7788869,3.3976332 5.39537631,20.8174129 Z" id="blue" fill="#105AE1"></path>
                    <path d="M14.5208976,23.5915739 C7.04898269,37.6367603 12.8827061,54.1464722 25.6952593,60.5700824 C25.1456848,61.4704891 17.753238,73.5226078 9.34302525,87.2393196 C37.0438763,99.8169976 65.1784508,86.6673874 75.9104721,64.2084213 C84.4355784,46.3664552 76.8324933,20.1870315 56.6408976,10.0400654 C40.6323869,1.99533659 22.028238,9.47779422 14.5208976,23.5915739 Z" id="green" fill="#1DC9AB"></path>
                    <path d="M23.0830572,26.0865315 C18.5294401,35.3611078 22.1629508,46.867379 31.2931635,51.4438027 C31.2931635,51.4438027 24.3325252,62.7925993 19.1316742,71.2720739 C38.997738,80.5369891 59.1864614,71.0150908 66.9159295,54.9159722 C73.3652912,41.4832942 67.7278444,22.6259552 53.4609295,15.4739044 C42.0472061,9.75265015 28.3049721,15.4526501 23.0830572,26.0865315 Z" id="yellow" fill="#FFC500"></path>
                    <path d="M35.5130146,44.5800366 C34.8868444,44.2718501 34.2664189,43.8844434 33.7340784,43.4970366 L14.6693976,68.5403247 C15.4420572,69.1141891 17.3875891,70.3981383 19.1320572,71.2724603 L35.5130146,44.5800366 Z" id="shadow" fill="#222432" opacity="0.300000012"></path>
                    <path d="M50.0355678,21.0903366 C42.5598231,17.3940315 33.5598231,20.5744383 29.9330146,28.1940824 C27.0319508,34.290184 29.5289721,41.6286925 35.5091848,44.5859298 C35.5091848,44.5859298 27.6140784,57.4486078 27.5518444,57.5490824 C40.5606742,63.5292518 53.7332274,57.2379976 58.7473763,46.7026586 C63.2808869,37.177862 59.3802487,25.7102349 50.0355678,21.0903366" id="orange" fill="#FF4B00" fill-rule="nonzero"></path>
                </g>
            </g>
            <g id="Nicequest-Logo-/-Logotype" transform="translate(120.000000, 20.000000)" fill="#FFFFFF">
                <path d="M200.45485,15.5774924 C201.569414,16.0692238 202.004043,16.727261 202,18.0207508 C201.990811,21.6876915 202,75 202,75 C202,75 195.79302,74.9866545 195.522268,74.9722824 C191.483372,74.7679931 189.992197,73.2045131 189.989144,69.0981965 C189.98609,63.9201312 189.988126,58.742066 189.988126,53.5640007 C188.059268,54.760992 186.385895,56.090412 184.495717,56.9055159 C173.974028,61.4388894 161.979486,56.102731 158.5279,45.0895898 C155.622908,35.8206067 156.687596,26.9704678 163.215176,19.4014997 C166.830639,15.2110036 171.656345,13.0151508 177.083611,12.368406 C185.12883,11.409581 192.959279,12.2688278 200.45485,15.5774924 Z M282.235928,12.0016683 L282.235928,12.0016683 C287.31891,12.0497803 292.055019,13.2034465 296.107737,16.4371921 C301.128593,20.443802 303.311304,27.8418012 301.195897,33.842503 C299.828078,37.7221789 296.766278,39.5770529 292.898904,40.2035336 C290.823879,40.5392944 288.687764,40.6027614 286.576498,40.612998 C281.34959,40.6426842 276.080228,40.6314239 270.808796,40.6314239 C271.322375,44.2981782 274.622327,47.5390895 278.935976,48.5187333 C279.691848,48.6907083 280.446685,48.8176423 281.201522,48.9220558 C288.564546,49.5403471 292.365652,48.504402 293.137056,48.2832912 C296.085993,47.3968006 296.979579,48.1655702 298.029517,50.8342548 C298.048155,50.8772486 298.971768,53.3135622 299.939906,55.5635694 C294.925263,57.1533152 290.557771,59 281.201522,59 C279.018811,58.9181071 276.835065,58.6447896 274.658567,58.1431956 C264.656202,55.8450763 258.607153,48.4634556 258.056299,38.0917206 C257.747737,32.2650412 258.659961,26.6963244 261.977515,21.7673958 C266.612388,14.8798623 273.357573,12.1182361 281.358194,12.00373 L281.795831,12.0001005 Z M133.79556,12.0001005 L134.23561,12.0016683 C139.318674,12.0497803 144.05486,13.2034465 148.107643,16.4371921 C153.128579,20.443802 155.311325,27.8418012 153.195884,33.842503 C151.828044,37.7221789 148.767229,39.5770529 144.898758,40.2035336 C142.8237,40.5392944 140.68755,40.6027614 138.576251,40.612998 C133.349258,40.6426842 128.079812,40.6314239 122.808295,40.6314239 C123.322918,44.2981782 126.621887,47.5390895 130.935605,48.5187333 C131.69149,48.6907083 132.447374,48.8176423 133.201188,48.9220558 C140.56433,49.5403471 144.365497,48.504402 145.136913,48.2832912 C148.085898,47.3968006 148.979498,48.1655702 150.029453,50.8342548 C150.048091,50.8772486 150.972755,53.3135622 151.939873,55.5635694 C146.925149,57.1533152 142.557587,59 133.201188,59 C131.018442,58.9181071 128.835696,58.6447896 126.658128,58.1431956 C116.655603,55.8450763 110.606457,48.4634556 110.056628,38.0917206 C109.747026,32.2650412 110.659265,26.6963244 113.976873,21.7673958 C118.781398,14.6294065 125.851506,11.9228464 134.23561,12.0016683 Z M103.736625,14.2189843 C109.917641,16.8045903 110.568381,22.6417915 105.250613,26.9088661 C98.5551062,20.1963939 89.0146444,21.0891908 84.7858497,25.4026578 C80.3892861,29.8862305 79.8981805,39.3575071 83.8727798,44.7142887 C86.9322757,48.8349693 92.8519782,50.4411791 99.2892226,48.1844441 L99.3255725,48.1778718 L99.3634476,48.1720727 C100.175856,47.8772229 101.176369,47.4328864 101.83016,47.0998916 C104.621225,45.6771898 105.647158,46.3081272 107.159112,48.8576501 C107.16577,48.8566856 108.458213,50.8703551 109.736218,52.8781165 L110,53.2927684 C109.381797,53.7958687 108.743258,54.2381434 108.095568,54.6525827 C107.567858,55.0598053 105.498708,56.0907486 105.419399,56.1175532 C102.713743,57.4897388 99.8047308,58.2742867 96.768621,58.6732617 C91.2566479,59.396984 85.8280509,59.0340919 80.7776966,56.4051864 C73.7446183,52.7443065 70.1218254,46.6710192 69.2026548,38.8430663 C67.9276107,27.9800162 72.6973332,18.0448151 82.7166992,14.043724 C89.6653847,11.2694554 96.7828559,11.3117241 103.736625,14.2189843 Z M327.155017,12.0758458 C331.331335,12.260413 335.439476,12.8945407 339.304869,14.5876099 C341.527831,15.5620012 343.486352,16.896247 343.727035,19.6070138 C343.979081,22.4415129 342.304628,24.2016038 340.08993,25.681235 C334.167884,21.0990183 327.407062,20.266919 320.250611,21.3475138 C319.49654,21.460935 318.728006,21.7578923 318.064836,22.1424933 C316.779815,22.8859178 316.063964,24.0046633 316.14247,25.5750315 C316.222009,27.1464307 317.205401,28.1342263 318.505917,28.4528368 C321.303213,29.1385195 333.331174,31.0120316 336.405308,31.8224777 C341.578447,33.1855944 345.318849,36.1922874 345.900414,41.8932497 C346.516067,47.9231334 344.28794,52.8270539 338.91647,55.6945482 C337.330853,56.5410828 333.592517,57.7588141 333.476824,57.7918094 C332.028593,58.1382596 330.429547,58.4651189 328.787117,58.6569039 C323.526175,59.2714406 317.978066,58.9342703 315.042351,58.6197842 C313.598252,58.4651189 312.22956,58.2444631 310.963133,57.9320393 C307.439655,57.0628204 304.843789,55.8822087 304.15996,55.6450553 C305.125791,53.3776623 306.047205,50.9236398 306.065799,50.8803336 C307.114268,48.1932821 308.004693,47.4189246 310.946605,48.3108277 C311.717205,48.5345768 314.48971,49.2223218 317.866505,49.5151547 C321.734997,49.8502628 326.352395,49.8564494 329.605233,49.0985895 C332.266177,48.3860981 333.165898,47.2642593 333.220646,45.4227114 C333.277459,43.5791012 332.204198,42.1623673 329.750883,41.6674384 C326.035272,40.9167962 322.245286,40.5486928 318.515213,39.8640412 C316.276757,39.4516004 314.01764,38.9401739 311.896943,38.1348834 C306.897343,36.2314693 304.125871,32.5380624 304.005013,27.1165288 C303.885188,21.7517057 305.90672,17.4643842 310.781329,14.8350744 C315.918314,12.0645037 321.509808,11.825288 327.155017,12.0758458 Z M361.096193,0 L361.095171,13.7229448 L375.61116,13.7229448 L375.611026,13.7812644 C375.609792,14.313244 375.600187,18.3100124 375.589691,18.5176586 C375.430208,21.7572092 374.237652,23.0033871 371.137432,23.066562 L370.895176,23.0691019 L361.096193,23.0691019 L361.096686,23.5675898 C361.103158,26.9574098 361.169113,38.8628883 361.121751,42.7178638 C361.046099,48.3879351 365.179358,49.3901259 368.757495,48.8328912 C370.094696,48.6239282 371.381802,48.0926839 372.785454,47.5510434 C373.310929,47.2952976 373.927391,47.1008892 374.248401,47.0291556 C375.606048,46.7890041 376.387104,47.5458453 377.409429,49.2674511 C377.414541,49.2674511 378.762987,51.3768341 380,53.3281952 C379.569601,53.6858235 373.937614,56.9762114 372.799767,57.4565145 C368.956848,59.0814359 364.878795,59.3059932 360.8355,58.6728664 C353.491119,57.528248 349.196333,52.327044 349.085922,44.5112032 C349.014359,39.3962874 348.999024,7.5507385 349,5.9518075 C349.004136,1.79333938 350.499797,0.00311885109 354.558426,0.00207923406 C355.943478,0.00207923406 357.687621,0.0015000647 359.02601,0.000953071409 L361.096193,0 Z M252,14 L252,57.942537 C248.972993,58.2182052 246.057258,58.5826999 243.13225,58.7317649 C236.033517,59.0921756 228.928601,59.4627962 222.019442,57.158414 C214.707438,54.7192607 210.251412,48.9996554 210.096867,41.3462885 C209.945414,33.8654695 210.009292,26.3795455 210.039171,18.8966846 C210.050189,15.9962124 211.715781,14.1071224 214.234007,14.004411 L214.451925,14 L222.103016,14.4289187 C222.097691,17.2847774 222.078833,33.6224731 222.328531,39.7760006 C222.551075,45.2301476 225.869655,48.3676604 231.404401,48.8148555 C233.374863,48.9745018 239.543052,48.9069469 239.822406,48.9037938 L239.832215,48.903682 L239.832975,46.3569168 C239.835082,42.5188875 239.834807,22.4584148 239.84973,18.9119995 C239.860757,15.9993535 241.157303,14.1044851 244.031659,14.0041874 L244.274847,14 L252,14 Z M29.9795273,14.8415953 C37.292562,17.2807481 41.7485884,23.0003522 41.9031327,30.6537174 C42.054586,38.1345348 41.9907077,45.6204571 41.9608292,53.1033165 C41.9498107,56.0037881 40.2842186,57.8928776 37.7659925,57.995589 L37.5480752,58 L29.8950431,58 L29.8959764,57.5710814 C29.9014538,54.7152233 29.9211668,38.3775312 29.671469,32.224005 C29.4489253,26.7698592 26.1303447,23.631326 20.5955994,23.185152 C18.6251365,23.0255057 12.4569481,23.0930606 12.1775937,23.0962137 L12.1677853,23.0963255 L12.1670003,25.6430653 C12.1647417,29.4809435 12.1642606,49.5406627 12.1502703,53.0880016 C12.1392434,56.0006469 10.8426971,57.8955149 7.96834105,57.9958126 L7.72515278,58 L0,58 L0,14.0574725 C3.02700705,13.7818043 5.94171193,13.4173098 8.86775006,13.2692657 C15.9654531,12.9078341 23.0713985,12.5361926 29.9795273,14.8415953 Z M61.9994963,14 L61.9990092,36.6327616 C61.9982847,43.6213134 61.9969374,48.5422687 61.9949674,51.3956275 L61.9944156,52.1214037 C61.9913673,56.2115733 60.5129111,57.975459 56.4707812,57.9723914 L56.2772272,57.9729651 C55.1797127,57.9769214 50.0052025,58 50.0052025,58 L50.0050013,55.821725 C50.0045989,51.465175 50.0035928,40.5738 50.0019831,23.1476 L50.0011381,14 Z M179.304596,21.8652897 C174.735392,22.1537584 171.871115,25.0538445 170.449155,29.3377593 C169.151375,33.2490259 168.970195,37.322492 170.3036,41.1947485 C171.007964,43.2407208 172.310834,45.4232281 173.971992,46.7228773 C179.945852,51.3938124 188.183448,48.0214999 189.545354,40.4135218 C189.835446,38.7966596 189.931125,37.1448938 189.987108,35.4849153 L189.987839,34.7776409 C189.991112,32.308389 190.004369,24.6463299 190.007007,23.1274053 L190.007465,22.8641512 C190.007465,22.8641512 188.966188,22.6054533 188.440968,22.5151143 C185.385332,21.9905324 182.325625,21.674346 179.304596,21.8652897 Z M270.383229,32.64177 L273.675703,32.6411202 C277.394545,32.6392746 283.248699,32.6324817 286.232732,32.6079677 C288.887604,32.5874944 289.989314,31.6354895 290.327903,29.4561149 C291.047535,24.8209771 287.945352,20.8645267 283.219597,20.3936426 C276.03674,19.6781034 270.191673,25.1219335 270.383229,32.64177 Z M135.220331,20.3936426 C128.036323,19.6781034 122.191162,25.1219335 122.383757,32.64177 C123.378832,32.64177 133.871129,32.6437958 138.232479,32.6079677 C140.887393,32.5874944 141.989121,31.6354895 142.327715,29.4561149 C143.047359,24.8209771 139.945126,20.8645267 135.220331,20.3936426 Z M51.3188592,0.000987981277 C52.1798034,0.00143678699 53.5221711,0.00189317815 55.5151601,0.00200727594 L56.4859383,0.00203435805 C60.4248609,0.00203435805 61.9304818,1.6792621 61.9969306,5.56032452 L61.9992393,5.82233273 L61.9992393,9 L50,9 L50,0 L51.3188592,0.000987981277 Z" id="Nicequest"></path>
            </g>
            <g id="by-gfk" stroke-width="1" transform="translate(530.000000, 32.000000)">
                <g id="Group-12" transform="translate(134.105909, 0.000000)">
                    <g id="Group-5" transform="translate(0.999419, 0.000000)"></g>
                </g>
                <path d="M96.3320246,0.430157469 C96.777736,0.43983827 97.2203627,0.495007173 97.6537896,0.610535287 C97.8027332,0.65022074 97.9496293,0.70544796 98.0909018,0.769918597 C98.5711466,0.989077937 98.8589331,1.38080047 98.9481191,1.92721171 C99.0558411,2.58693498 99.0138006,3.24222607 98.8567492,3.88941096 C98.838568,3.96434969 98.8146267,4.03823869 98.7877372,4.11017404 C98.5723477,4.68664825 98.1960851,4.96674999 97.6142333,4.96978253 C96.5234728,4.97546854 95.4326849,4.97156123 94.3419244,4.97815117 C93.5415438,4.98299157 92.7448213,5.04757884 91.9528761,5.17421655 C91.9207178,5.18086481 91.8885868,5.18751307 91.8564286,5.19416133 C91.6333681,5.20527093 91.4142114,5.24469395 91.1971021,5.29863817 C89.6646704,5.57999374 88.197811,6.06292576 86.8076619,6.82505557 C85.9338195,7.30408027 85.1215092,7.86597496 84.3753445,8.54336861 C83.3760085,9.4505938 82.537027,10.5040807 81.8525036,11.6979976 C80.5238319,14.0155289 79.8811579,16.5652828 79.6287782,19.2437738 C79.4900991,20.7156347 79.4825919,22.1906447 79.567137,23.6673459 C79.6516548,25.1442804 79.83909,26.6042444 80.1787174,28.0391899 C80.6074216,29.8503161 81.2506962,31.5639637 82.2439991,33.1135917 C83.207355,34.6165361 84.4115158,35.8411866 85.9162662,36.7129835 C86.9139643,37.2910032 87.9757879,37.6723159 89.0927009,37.8908921 C90.2266485,38.1128215 91.3672843,38.1529735 92.5144447,38.0861119 C92.5554205,38.0992917 92.595086,38.0970173 92.6329771,38.0745066 C92.7050193,38.0918853 92.7740313,38.0783847 92.8417602,38.0514126 C93.48195,38.0449976 94.1056512,37.933406 94.7031726,37.6874203 C95.4739611,37.3701116 95.8593963,36.7402472 95.8945847,35.8786559 C95.9246137,35.143265 95.9122199,34.4057745 95.9130935,33.669188 C95.9137214,33.1461915 95.9052041,32.6231367 95.9007816,32.100111 C95.9056954,31.9742606 95.9148406,31.8484393 95.9148952,31.7225889 C95.9158234,28.8564303 95.9152774,25.9903008 95.9161783,23.1241422 C95.916424,22.3953703 96.1630708,22.0215223 96.7925594,21.7890955 C96.8696792,21.7606363 96.9490648,21.7378048 97.0287507,21.7187639 C97.7656065,21.5427017 98.5096146,21.5633754 99.2541413,21.6369728 C99.4982767,21.6611165 99.7379622,21.7188806 99.969267,21.8124228 C100.553303,22.048611 100.785072,22.3992484 100.793043,23.0677777 L100.793343,23.3300925 C100.793452,27.7021988 100.793398,32.0743052 100.794271,36.4463824 C100.794299,36.5722037 100.803963,36.6979666 100.809122,36.8237587 C100.776281,37.1522061 100.800496,37.4817324 100.793616,37.8106756 C100.788156,38.0724654 100.776418,38.3335555 100.730009,38.5910881 C100.561028,39.5290178 100.060364,40.2258896 99.3449925,40.7687435 C99.0335924,41.00499 98.6871129,41.1733835 98.3554023,41.3703528 C98.1421694,41.4515607 97.9298648,41.5356262 97.71554,41.6133934 C96.4932254,42.0568149 95.2260039,42.2516848 93.9465251,42.3514087 C92.5312063,42.4617173 91.1135943,42.488602 89.6958459,42.3741819 C88.3137773,42.2626194 86.9579977,42.0046202 85.6337485,41.5653101 C85.2702617,41.4447083 84.9093684,41.3152714 84.5472739,41.1899167 C84.1921134,41.0203568 83.8343048,40.8568038 83.4822018,40.6802458 C81.3293174,39.600749 79.5307201,38.0502171 78.081878,36.0360273 C78.0436048,35.982812 77.9983975,35.9352536 77.9564389,35.8850709 C77.8445128,35.6774294 77.7120306,35.485213 77.5699391,35.3003155 C77.5492464,35.2250561 77.5124746,35.1613727 77.4526897,35.1142226 C76.4799702,33.5104171 75.7718331,31.7780494 75.2702951,29.9481447 C74.7856279,28.1798239 74.5092797,26.3714386 74.3785719,24.5352064 C74.2701128,23.0116758 74.2490925,21.4882034 74.3338561,19.9629232 C74.4857479,17.2303713 74.9454638,14.5677136 75.9096387,12.0190678 C76.1584967,11.3611815 76.4423249,10.7208782 76.7539707,10.0944254 C76.7877942,10.0264848 76.8155301,9.95507434 76.8460777,9.88523844 C77.0272887,9.57285765 77.2046506,9.25785255 77.3902568,8.94853346 C79.1883628,5.95200477 81.6483067,3.79056181 84.6855981,2.35934868 C85.4249108,2.01098563 86.1809305,1.7103851 86.9570422,1.46856918 C86.9914117,1.45783866 87.0229421,1.43681499 87.0557829,1.4205734 C87.0557556,1.4205734 87.0820991,1.42389753 87.0820991,1.42389753 L87.105276,1.41010531 C87.2019419,1.39030632 87.3000274,1.37540605 87.3856918,1.31743788 C87.8187638,1.21161973 88.2509349,1.10148603 88.6850716,1.00085819 C89.831877,0.735161022 90.9918133,0.570529085 92.1623689,0.483839261 C93.551508,0.38093701 94.9417117,0.399948704 96.3320246,0.430157469 Z M154.057518,0.0798843736 C154.701944,0.214254527 155.300725,0.459428827 155.841466,0.860343696 C156.015171,0.989122412 156.169903,1.13947647 156.299222,1.31834393 C156.513007,1.61413391 156.560573,1.93106011 156.41009,2.27702667 C156.313094,2.50006941 156.183912,2.69975107 156.039817,2.88921592 C155.481173,3.62374348 154.861913,4.30074657 154.274182,5.00769751 C154.050417,5.27684766 153.826817,5.54614418 153.603107,5.81535288 C153.532485,5.86339241 153.476448,5.92671325 153.431898,6.00200737 C153.320399,6.13596768 153.193658,6.25608113 153.106175,6.41176315 C152.988234,6.50895464 152.89324,6.62859969 152.808855,6.75857867 C152.726883,6.82271919 152.655274,6.89678379 152.610203,6.99611231 C152.570039,7.0349889 152.526476,7.07055747 152.490205,7.11323976 C151.471832,8.31121262 150.454172,9.50988806 149.436402,10.708505 C148.51072,11.7986304 147.584874,12.8885802 146.659466,13.9790277 C144.911953,16.0381112 143.164439,18.0972533 141.41772,20.1571858 C141.240041,20.366733 141.059702,20.5744651 140.908013,20.8071685 C140.694666,21.1343993 140.68943,21.3136181 140.904476,21.6324179 C141.026913,21.8138908 141.163497,21.9856445 141.303946,22.1518946 C142.264199,23.2885373 143.22807,24.4216963 144.18909,25.5575779 C145.859567,27.5319702 147.527822,29.5085288 149.199231,31.4820429 C149.725388,32.1033365 150.259522,32.7169016 150.788421,33.3355898 C151.526855,34.1993352 152.263809,35.0646029 153.001393,35.9291973 C153.514089,36.5369075 154.028512,37.1429491 154.538987,37.7527378 C155.037948,38.3487383 155.558347,38.9245393 156.031071,39.545306 C156.281566,39.8742347 156.497435,40.2217821 156.513281,40.666521 L156.449458,40.8967652 C156.422865,40.9143104 156.408615,40.9385303 156.401412,40.9665709 L156.39467,41.0080929 L156.374603,41.0228745 C156.361811,41.0359722 156.355542,41.0537451 156.355341,41.0758376 C156.260347,41.1892765 156.16538,41.3026861 156.070413,41.4160956 C156.01687,41.4307036 155.982025,41.4699608 155.953212,41.5172099 L155.304727,41.947897 C155.26004,41.9488045 155.219219,41.9586407 155.19375,42.003343 C155.151091,42.0075 155.10942,42.0139989 155.081922,42.0553053 C154.929602,42.0945624 154.785205,42.1566538 154.644208,42.2284935 C154.389875,42.2915216 154.135542,42.3546082 153.881236,42.4176363 C153.835864,42.4169923 153.79008,42.4118692 153.745201,42.4164946 C153.259071,42.4665833 152.804797,42.3630393 152.381229,42.1022324 C152.14181,41.9548351 151.907354,41.8007339 151.709551,41.5914794 C151.503305,41.3732963 151.297717,41.1543812 151.091854,40.9358175 C151.110031,40.8158504 151.013035,40.7668155 150.955901,40.6989279 C150.175905,39.7715982 149.394484,38.8456151 148.610074,37.9225302 C148.175649,37.4112796 147.756878,36.8846598 147.300439,36.3948967 C147.243881,36.3196319 147.19064,36.2411761 147.130244,36.1695998 C146.6258,35.5719015 146.115846,34.979414 145.616584,34.3768268 C145.399371,34.1147025 145.138651,33.8992712 144.935091,33.623505 C144.783648,33.418349 144.63089,33.2135443 144.467741,33.0190735 C143.847357,32.2798034 143.224725,31.5426412 142.598667,30.808904 C142.120597,30.24856 141.659771,29.6712953 141.160509,29.1316776 C140.900693,28.7665362 140.598465,28.4409155 140.312001,28.1009795 C138.864083,26.3826224 137.411148,24.6690955 135.961284,22.9526412 C135.722413,22.6698491 135.496702,22.3757863 135.328673,22.0365237 C135.060578,21.4951495 135.060304,20.953834 135.327988,20.4129575 C135.500102,20.0651759 135.733407,19.7654046 135.978775,19.4751768 C138.377953,16.6371855 140.776994,13.7990478 143.175515,10.9604124 C143.242463,10.8811662 143.302996,10.7957431 143.366518,10.7132182 C143.793979,10.2596677 144.183552,9.76887995 144.585462,9.29053391 C145.227641,8.52629269 145.840102,7.73254272 146.500759,6.9872714 C147.779386,5.54488538 148.999044,4.04602877 150.253957,2.58107207 C150.627574,2.14488138 150.990637,1.69844459 151.358552,1.25669174 C151.443348,1.20358772 151.505937,1.12808867 151.553283,1.03719121 C151.565566,1.02428114 151.57782,1.01137106 151.590102,0.998460991 C151.729044,0.872668279 151.866971,0.745587487 152.007091,0.621287776 C152.608613,0.0877006766 153.292655,-0.0795447889 154.057518,0.0798843736 Z M120.299799,0.420277793 C120.76444,0.436198933 121.228944,0.473523215 121.685642,0.579547504 C121.900186,0.629352094 122.108157,0.697527228 122.307227,0.797486322 C122.743355,1.01650404 123.010898,1.3804158 123.099367,1.88029874 C123.221362,2.56948578 123.176552,3.25351158 122.997614,3.92756479 C122.977839,4.00203839 122.951024,4.0751415 122.920731,4.14559108 C122.707036,4.64232479 122.355049,4.91861196 121.829685,4.91785381 C120.953375,4.91657079 120.0766,4.91380063 119.201495,4.96313866 C117.977444,5.03215943 116.770539,5.21189917 115.602692,5.63488827 C113.457193,6.41193317 112.102766,7.97500413 111.48907,10.2863978 C111.194246,11.3968243 111.070225,12.5323282 111.030427,13.6809829 C111.018979,14.0110404 111.011611,14.3414769 111.011556,14.6717385 L111.009529,39.7441794 C111.009529,39.8506994 111.017363,39.9572485 111.021526,40.0637685 C111.017445,40.26739 111.009748,40.4710406 111.009967,40.6746621 C111.010515,41.1505758 110.801613,41.4856487 110.411911,41.7040833 C110.132973,41.8604079 109.830041,41.9338026 109.522618,41.9747718 C108.804101,42.0705611 108.085529,42.0711151 107.370627,41.9287288 C107.14562,41.8839397 106.92872,41.8140149 106.724502,41.7009632 C106.332334,41.4837825 106.12765,41.1447439 106.127321,40.6711921 C106.126637,39.6320316 106.126856,38.5929002 106.125651,37.5537397 C106.125514,37.4375096 106.118447,37.3212794 106.114612,37.2050201 C106.118748,37.0790507 106.126472,36.953052 106.126472,36.8270826 C106.126993,29.2373064 106.127184,21.6475594 106.126637,14.0577832 C106.126527,12.4187224 106.276678,10.7987902 106.671557,9.21052535 C107.048934,7.69250597 107.641266,6.28223129 108.54198,5.02938927 C109.75954,3.33574164 111.350834,2.19434759 113.214601,1.46034225 C114.374779,1.00344054 115.575138,0.728582197 116.80212,0.572257605 C117.964735,0.4240977 119.130884,0.380212509 120.299799,0.420277793 Z M132.008766,0.581889364 C132.105315,0.60956151 132.200439,0.645835639 132.292572,0.687358437 C132.760975,0.898500698 133.006573,1.26436204 133.00405,1.81736756 C132.99903,2.91541812 133.003666,4.01349784 133.003611,5.11160672 C133.003007,15.3052203 133.002184,25.4988339 133.002184,35.6924475 C133.002184,35.7887606 132.987894,35.886969 133.021028,35.9811826 C132.987181,36.1144405 133.003693,36.2506434 133.003474,36.3853009 C133.000978,37.8850204 133.000511,39.3847399 132.999496,40.884401 C132.987071,40.9004386 132.984767,40.9180217 132.992584,40.9370918 C132.868469,41.4137584 132.553997,41.6786703 132.128794,41.8287239 C131.795918,41.9462066 131.452563,41.9918117 131.106082,42.0178218 C130.446883,42.0673342 129.790922,42.0496345 129.145987,41.8771866 C129.022722,41.8442366 128.900828,41.7986316 128.784804,41.7434331 C128.340703,41.532145 128.109724,41.1684414 128.106049,40.6464322 C128.103882,40.3358277 128.098451,40.025194 128.094501,39.7145895 C128.098643,39.520622 128.106433,39.3265963 128.106433,39.1325997 L128.106296,1.78838324 C128.109971,1.27745455 128.341553,0.923227757 128.770486,0.709927711 C129.114855,0.538675329 129.484267,0.473650161 129.859165,0.44218731 C130.581587,0.381536032 131.301457,0.379203291 132.008766,0.581889364 Z M156.39467,41.0080929 L156.396995,41.0089489 L156.395231,41.0111409 L156.39467,41.0080929 L156.39874,41.006779 Z M115.608766,18.4821817 C117.070947,18.4859911 118.2436,19.7589175 118.241448,21.3400185 C118.239317,22.9161201 117.057743,24.1741948 115.584459,24.1690069 C114.109239,24.1637868 112.934594,22.9041334 112.935957,21.3287919 C112.937295,19.7391541 114.12116,18.4783605 115.608766,18.4821817 Z" id="Combined-Shape" fill="#FFFFFF"></path>
                <path d="M14.9495185,10.2699492 C18.6906305,10.2699492 21.8794353,11.6327624 24.5160286,14.3584298 C27.1526218,17.0840971 28.4708987,20.4065111 28.4708987,24.3257713 C28.4708987,28.2450315 27.1526218,31.5674455 24.5160286,34.2931128 C21.8794353,37.0187802 18.6906305,38.3815934 14.9495185,38.3815934 C10.5314433,38.3815934 7.16449295,36.6179527 4.84856644,33.0906185 L4.84856644,37.6868189 L0.198921867,37.6868189 L0.198921867,0.275885541 L4.84856644,0.275885541 L4.84856644,15.560924 C7.16449295,12.0335898 10.5314433,10.2699492 14.9495185,10.2699492 Z M14.3616324,33.8922814 C17.0338553,33.8922814 19.2784888,32.974832 21.0956004,31.1399056 C22.9127119,29.3049792 23.8212541,27.0336238 23.8212541,24.3257713 C23.8212541,21.6179188 22.9127119,19.3465634 21.0956004,17.511637 C19.2784888,15.6767106 17.0338553,14.7592612 14.3616324,14.7592612 C11.6537798,14.7592612 9.39133173,15.6767106 7.57422016,17.511637 C5.7571086,19.3465634 4.84856644,21.6179188 4.84856644,24.3257713 C4.84856644,27.0336238 5.7571086,29.3049792 7.57422016,31.1399056 C9.39133173,32.974832 11.6537798,33.8922814 14.3616324,33.8922814 Z M48.2389248,10.9647237 L53.2092345,10.9647237 L42.3066196,39.3435888 C41.1664712,42.3721081 39.5720688,44.6790926 37.5233646,46.2646115 C35.4746604,47.8501304 33.1142322,48.5538052 30.4420093,48.375657 L30.4420093,44.0466776 C33.7199361,44.2960851 36.1249006,42.4790008 37.6569751,38.5953702 L38.1379728,37.5799305 L26.4871392,10.9647237 L31.457449,10.9647237 L40.5429614,31.9148463 L48.2389248,10.9647237 Z" id="by" fill="#FFFFFF"></path>
            </g>
        </g>
    </g>
</svg>