<?xml version="1.0" encoding="UTF-8"?>
<svg width="171px" height="38px" viewBox="0 0 171 38" version="1.1" xmlns="http://www.w3.org/2000/svg" xmlns:xlink="http://www.w3.org/1999/xlink">
    <!-- Generator: sketchtool 61.2 (101010) - https://sketch.com -->
    <title>8703DFAE-F5C3-4155-A334-35CC6B5FDC98</title>
    <desc>Created with sketchtool.</desc>
    <g id="Asset-Artboard-Page" stroke="none" stroke-width="1" fill="none" fill-rule="evenodd">
        <g id="Nicequest-Logo-/-Horizontal-/-*Main-Dark-BG" transform="translate(0.661461, 0.000000)">
            <rect fill="#222432" x="0" y="0" width="170" height="38"></rect>
            <g id="Nicequest-Logo-/-Symbol-/-*Main">
                <g id="logo">
                    <path d="M1.834428,6.93913747 C-2.00749977,13.2580865 0.48802796,20.7640524 6.50483452,23.7573574 C6.49604516,23.7731371 3.13753229,29.1723573 1.02287691,32.5247301 C0.0384683721,34.0862725 -0.735321013,35.155747 2.26640886,36.4464589 C11.3663283,40.3588486 24.9309181,35.4446114 29.3210416,24.8680523 C32.562363,17.0590525 29.4076331,5.92022224 20.4122094,1.53444267 C12.9565517,-2.10067589 5.36482172,1.13254437 1.834428,6.93913747 Z" id="blue" fill="#105AE1"></path>
                    <path d="M4.93710519,7.86385781 C2.39665415,12.5455865 4.38012009,18.0488237 8.73638813,20.190027 C8.54953281,20.4901626 6.03610092,24.5075354 3.17662861,29.0797726 C12.5949179,33.2723319 22.1606731,28.8891286 25.8095603,21.4028067 C28.7080964,15.4554848 26.1230475,6.72901038 19.257905,3.34668841 C13.8150115,0.665112197 7.48960091,3.15926469 4.93710519,7.86385781 Z" id="green" fill="#1DC9AB"></path>
                    <path d="M7.84823945,8.69551048 C6.30000959,11.7870359 7.53540327,15.6224597 10.6396757,17.1479343 C10.6396757,17.1479343 8.27305862,20.9308666 6.50476918,23.7573582 C13.2592312,26.8456633 20.1233974,23.6716971 22.7514167,18.3053242 C24.9441998,13.8277648 23.0274678,7.54198504 18.1767165,5.15796805 C14.2960504,3.25088328 9.62369059,5.15088331 7.84823945,8.69551048 Z" id="yellow" fill="#FFC500"></path>
                    <path d="M12.0744249,14.860012 C11.861527,14.7572832 11.6505823,14.6281476 11.4695866,14.499012 L4.98759516,22.8467745 C5.25029941,23.0380626 5.91178026,23.4660457 6.5048994,23.7574863 L12.0744249,14.860012 Z" id="shadow" fill="#222432" opacity="0.300000012"></path>
                    <path d="M17.0120934,7.03011239 C14.47034,5.79801074 11.4103398,6.8581463 10.1772249,9.39802756 C9.19086311,11.4300614 10.0398504,13.8762308 12.0731229,14.8619765 C12.0731229,14.8619765 9.38878653,19.1495357 9.36762696,19.1830272 C13.7906294,21.176417 18.2692977,19.0793323 19.9741085,15.5675528 C21.5155022,12.3926207 20.1892851,8.57007844 17.0120934,7.03011239" id="orange" fill="#FF4B00" fill-rule="nonzero"></path>
                </g>
            </g>
            <g id="Nicequest-Logo-/-Logotype" transform="translate(40.800000, 6.666667)" fill="#FFFFFF">
                <path d="M60.2084263,4.12280199 C62.9438007,3.80319368 65.6061533,4.08960926 68.1546474,5.19249746 C68.5335992,5.35640794 68.681373,5.57575368 68.6799984,6.00691692 C68.6781942,6.71275998 68.6784737,12.9369435 68.679032,18.0707985 L68.6799984,25 C68.6799984,25 66.5696253,24.9955515 66.4775694,24.9907608 C65.104345,24.9226644 64.5973456,24.4015044 64.5963073,23.0327322 C64.5952691,21.3067104 64.5959613,19.5806887 64.5959613,17.8546669 C63.9401497,18.253664 63.3712029,18.696804 62.7285422,18.9685053 C59.1511681,20.4796298 55.0730239,18.7009103 53.8994846,15.0298633 C52.9117874,11.9402022 53.2737815,8.99015594 55.4931586,6.46716658 C56.7224159,5.07033454 58.363156,4.33838361 60.2084263,4.12280199 Z M28.123677,4.68124132 C30.4862301,3.75648513 32.9061702,3.77057469 35.2704518,4.73966145 C37.371997,5.60153009 37.5932486,7.54726384 35.7852076,8.96962202 C33.5087353,6.7321313 30.2649784,7.02973028 28.8271882,8.46755261 C27.3323566,9.96207683 27.1653807,13.119169 28.5167445,14.9047629 C29.556973,16.2783231 31.5696718,16.8137264 33.7583349,16.0614814 C33.765249,16.0590758 33.7759659,16.0594195 33.7835714,16.0573576 L33.7835714,16.0573576 C34.0597903,15.9590743 34.3999647,15.8109621 34.6222535,15.6999639 C35.5712158,15.2257299 35.9200329,15.4360424 36.4340973,16.2858834 C36.4365172,16.2855397 36.938482,17.0525616 37.3999991,17.7642561 C37.18981,17.9319562 36.9727068,18.0793811 36.7524923,18.2175276 C36.573071,18.3532684 35.8695598,18.6969162 35.8425948,18.7058511 C34.9226718,19.1632463 33.9336077,19.4247622 32.9013303,19.5577539 C31.0272595,19.7989947 29.1815366,19.6780306 27.4644162,18.8017288 C25.0731696,17.5814355 23.8414201,15.5570064 23.5289021,12.9476888 C23.0953871,9.32667207 24.7170927,6.01493837 28.123677,4.68124132 Z M105.66565,4.9450248 C107.412224,4.02150122 109.313332,3.94176268 111.232703,4.02528193 C112.652651,4.08680434 114.049419,4.29818022 115.363653,4.86253665 C116.11946,5.18733374 116.785357,5.63208234 116.867189,6.53567128 C116.952885,7.4805043 116.383571,8.06720126 115.630573,8.56041165 C113.617078,7.03300608 111.318399,6.75563968 108.885205,7.11583793 C108.628821,7.153645 108.36752,7.25263078 108.142042,7.38083111 C107.705135,7.62863926 107.461745,8.00155444 107.488437,8.52501049 C107.51548,9.04881024 107.849834,9.37807544 108.292009,9.48427893 C109.24309,9.71283984 113.332597,10.3373439 114.377802,10.6074926 C116.136669,11.0618648 117.408406,12.0640958 117.606138,13.9644166 C117.81546,15.9743778 117.057897,17.609018 115.231597,18.5648494 C114.692487,18.8470276 113.421453,19.252938 113.382117,19.2639365 C112.889719,19.3794199 112.346043,19.488373 111.787617,19.5523013 C109.998897,19.7571469 108.11254,19.6447568 107.114397,19.5399281 C106.623403,19.488373 106.158048,19.414821 105.727463,19.3106798 C104.52948,19.0209401 103.646886,18.6274029 103.414384,18.5483518 C103.742767,17.7925541 104.056047,16.9745466 104.062369,16.9601112 C104.418849,16.0644274 104.721593,15.8063082 105.721843,16.1036092 C105.983847,16.1781923 106.926499,16.4074406 108.074609,16.5050516 C109.389896,16.6167543 110.959812,16.6188165 112.065777,16.3661965 C112.970497,16.1286994 113.276403,15.7547531 113.295017,15.1409038 C113.314334,14.5263671 112.949425,14.0541224 112.115297,13.8891461 C110.85199,13.6389321 109.563395,13.5162309 108.29517,13.2880137 C107.534095,13.1505335 106.765995,12.980058 106.044958,12.7116278 C104.345094,12.0771564 103.402794,10.8460208 103.361702,9.03884292 C103.320962,7.25056858 104.008282,5.82146139 105.66565,4.9450248 Z M75.5153333,4.66666667 C75.5153333,4.66666667 75.4985189,11.0073763 75.5916987,13.2586669 C75.6673636,15.0767159 76.795681,16.1225535 78.6774944,16.2716185 C79.3007105,16.3211212 81.1589524,16.3050891 81.491664,16.3017651 L81.5429511,16.3012273 L81.5429511,15.6637871 C81.5439563,15.6341635 81.543359,8.29239196 81.5482102,6.51121252 L81.5489062,6.30399982 C81.5527595,5.3061489 82.0183086,4.66666667 83.0534461,4.66666667 L83.0534461,4.66666667 L85.679998,4.66666667 L85.679998,19.314179 C84.6508156,19.4060684 83.6594657,19.5275666 82.664963,19.577255 C80.2513937,19.6973919 77.8357227,19.8209321 75.4866086,19.0528047 C73.0005272,18.2397536 71.4854783,16.3332185 71.4329332,13.7820962 C71.3814391,11.2884898 71.4031577,8.79318185 71.4133164,6.29889486 C71.4171697,5.30444724 72.0161833,4.66666667 72.9136527,4.66666667 L72.9136527,4.66666667 Z M95.9602132,4.00055609 C97.6884271,4.01659345 99.2987042,4.40114883 100.676628,5.47906404 C102.383719,6.81460065 103.125841,9.28060041 102.406602,11.2808343 C101.941544,12.5740596 100.900532,13.192351 99.585625,13.4011779 C98.8801167,13.5130981 98.1538373,13.5342538 97.4360072,13.537666 C95.6588583,13.5475614 93.8672754,13.543808 92.0749884,13.543808 C92.2496052,14.7660594 93.3715889,15.8463632 94.8382295,16.1729111 C95.0952261,16.2302361 95.3518706,16.2725474 95.6085151,16.3073519 C98.1119434,16.513449 99.4043192,16.168134 99.6665966,16.0944304 C100.669235,15.7989335 100.973054,16.0551901 101.330033,16.9447516 C101.335525,16.957172 101.572128,17.5688088 101.8494,18.219915 L101.979566,18.5211898 C100.274587,19.0511051 98.7896398,19.6666667 95.6085151,19.6666667 C94.8663936,19.639369 94.1239199,19.5482632 93.3839106,19.3810652 C89.9831067,18.6150254 87.9264301,16.1544852 87.7391394,12.6972402 C87.6342285,10.7550137 87.9443846,8.8987748 89.0723531,7.25579862 C90.7055135,4.87646883 93.1093115,3.97428212 95.9602132,4.00055609 Z M45.6401065,4.00055609 C47.3683481,4.01659345 48.9786511,4.40114883 50.3565973,5.47906404 C52.0637156,6.81460065 52.8058491,9.28060041 52.0865992,11.2808343 C51.6215336,12.5740596 50.5808568,13.192351 49.2655765,13.4011779 C48.5600568,13.5130981 47.8337658,13.5342538 47.1159242,13.537666 C45.3387467,13.5475614 43.5471351,13.543808 41.7548193,13.543808 C41.929791,14.7660594 43.0514406,15.8463632 44.5181048,16.1729111 C44.7751055,16.2302361 45.0321062,16.2725474 45.2884028,16.3073519 C47.7918712,16.513449 49.0842678,16.168134 49.3465494,16.0944304 C50.3492041,15.7989335 50.6530282,16.0551901 51.0100128,16.9447516 C51.0155048,16.957172 51.2523758,17.5688088 51.5294934,18.219915 L51.6595556,18.5211898 C49.9545496,19.0511051 48.4695785,19.6666667 45.2884028,19.6666667 C44.5462693,19.639369 43.8041358,19.5482632 43.0637625,19.3810652 C39.662904,18.6150254 37.6061943,16.1544852 37.4192527,12.6972402 C37.3139881,10.7550137 37.6241492,8.8987748 38.7521358,7.25579862 C40.3856745,4.87646883 42.7895111,3.97428212 45.6401065,4.00055609 Z M122.772703,0 L122.772355,4.57431494 L127.707791,4.57431494 C127.707791,4.57431494 127.704315,6.09839351 127.700492,6.17255285 C127.644877,7.28009153 127.219774,7.68866102 126.104357,7.68970064 L126.104357,7.68970064 L122.772703,7.68970064 C122.772355,8.51896849 122.798424,12.8801619 122.781393,14.2392879 C122.755671,16.1293117 124.160979,16.4633753 125.377545,16.2776304 C125.832194,16.2079761 126.26981,16.0308946 126.747051,15.8503478 C126.925713,15.7650992 127.13531,15.7002964 127.244453,15.6763852 C127.706053,15.5963347 127.971612,15.8486151 128.319203,16.4224837 C128.320941,16.4224837 128.779413,17.1256114 129.199997,17.7760651 C129.053661,17.8952745 127.138786,18.9920705 126.751918,19.1521715 C125.445325,19.693812 124.058787,19.7686644 122.684067,19.5576221 C120.186978,19.1760827 118.72675,17.442348 118.689211,14.8370677 C118.666257,13.2286036 118.660317,3.69008346 118.659997,2.16790672 L118.659997,1.98393583 C118.661403,0.597779793 119.169928,0.00103961703 120.549862,0.000693078021 L120.549862,0.000693078021 L122.772703,0 Z M3.01503495,4.42308858 C5.42825393,4.30261138 7.84427531,4.17873087 10.193039,4.94719844 C12.6794708,5.76024938 14.1945197,7.66678406 14.2470648,10.2179058 C14.2985589,12.7115116 14.2768403,15.206819 14.2666816,17.7011055 C14.2628283,18.6955529 13.6638147,19.3333333 12.7663453,19.3333333 L12.7663453,19.3333333 L10.1643144,19.3333333 C10.1643144,19.3333333 10.1814791,12.9926251 10.0882992,10.741335 C10.0126344,8.92328639 8.884317,7.87710867 7.00250362,7.72838399 C6.37928748,7.67888128 4.52104555,7.69491341 4.18833393,7.69823745 L4.13704691,7.69877518 L4.13704691,8.33621529 C4.1360417,8.36583889 4.1363185,15.7072974 4.13174597,17.4887473 L4.1310918,17.6960005 C4.1272385,18.6938512 3.66168936,19.3333333 2.62655188,19.3333333 L2.62655188,19.3333333 L0,19.3333333 L0,4.68582417 C1.02918237,4.59393478 2.02018201,4.47243658 3.01503495,4.42308858 Z M21.0798279,4.66666667 C21.0800034,9.89308112 21.0797109,13.5962912 21.0789505,15.776297 L21.0781005,17.3738012 C21.0770641,18.7371911 20.5743889,19.325153 19.2000648,19.3241305 C19.1168422,19.3241305 17.444645,19.3314019 17.0740731,19.3330177 L17.001768,19.3333333 C17.001768,19.3333333 17.0015061,16.5531966 17.0009822,10.992923 L17.0003861,4.66666667 Z M61.404531,7.27121138 L60.9635612,7.28842978 C59.4100319,7.38458602 58.4361777,8.35128136 57.9527113,9.77925292 C57.5114661,11.0830084 57.4498648,12.4408304 57.9032226,13.7315825 C58.1427063,14.4135733 58.585682,15.1410757 59.1504759,15.5742921 C61.1815883,17.1312704 63.9823708,16.0071663 64.4454188,13.4711736 C64.5440501,12.9322196 64.5765811,12.381631 64.5956152,11.8283048 C64.5956152,11.5578746 64.6007004,8.66023978 64.6021533,7.83786311 L64.6025367,7.62138361 C64.6025367,7.62138361 64.2485023,7.53515096 64.0699277,7.50503797 C63.0310115,7.33017733 61.9907109,7.22478187 60.9635612,7.28842978 Z M96.2946606,6.79788091 C93.8524893,6.55936786 91.8651666,8.37397792 91.9302959,10.8805901 C92.268968,10.8805901 95.8362914,10.8812654 97.3191264,10.8693227 C98.2217828,10.8624983 98.596364,10.5451633 98.7114844,9.81870507 C98.9561592,8.27365912 97.9014172,6.95484229 96.2946606,6.79788091 Z M45.9749117,6.79788091 C43.5323489,6.55936786 41.5449941,8.37397792 41.6104765,10.8805901 C41.9488021,10.8805901 45.5161831,10.8812654 46.9990419,10.8693227 C47.9017129,10.8624983 48.2763002,10.5451633 48.3914225,9.81870507 C48.6361012,8.27365912 47.5813422,6.95484229 45.9749117,6.79788091 Z M19.2052186,0.000678119349 C20.574213,0.000678119349 21.0787064,0.584877939 21.0797409,1.94077758 L21.0797409,1.94077758 L21.0797409,3 L16.9999996,3 L16.9999996,0 L16.9999996,0 Z" id="Nicequest"></path>
            </g>
        </g>
    </g>
</svg>